<svg xmlns:xlink="http://www.w3.org/1999/xlink" xmlns="http://www.w3.org/2000/svg" width="22" height="22" fill="none" viewBox="0 0 22 22"><rect width="22" height="22" fill="#FFFFFF" rx="11"></rect><path fill="#FF4930" d="M2 11a9 9 0 1118 0 9 9 0 01-18 0z"></path><path fill="#FFFFFF" d="M11.098 8.078C11.723 7.384 12.515 7 13.329 7c.567 0 1.118.194 1.596.559 1.383 1.061 1.297 2.942.5 4.25-1.08 1.767-3.279 3.59-3.708 3.937a1.15 1.15 0 01-.718.254 1.15 1.15 0 01-.719-.254c-.43-.348-2.628-2.17-3.707-3.938-.798-1.304-.879-3.184.508-4.25A2.607 2.607 0 018.675 7c.808 0 1.598.383 2.226 1.078.03.033.061.07.098.113.035-.044.069-.081.098-.113z"></path></svg>